<svg xmlns="http://www.w3.org/2000/svg" width="1440" height="900" viewBox="0 0 1440 900" role="img">
  <title>SIGEP-HUC - KPI</title>
  <desc>Dashboard de processos hospitalares Dados fictícios, sem informação real de pacientes, profissionais ou instituição.</desc>
  <defs>
    <filter id="shadow" x="-15%" y="-15%" width="130%" height="130%"><feDropShadow dx="0" dy="18" stdDeviation="18" flood-color="#0f172a" flood-opacity=".13"/></filter>
    <style>.ui{font-family:Inter,Segoe UI,Arial,sans-serif;letter-spacing:0}</style>
  </defs>
  <rect width="1440" height="900" fill="#f5f8fc"/>
  <rect x="34" y="28" width="1372" height="824" rx="26" fill="#ffffff" filter="url(#shadow)"/>
  <rect x="34" y="28" width="1372" height="48" rx="26" fill="#f8fafc"/>
  <circle cx="72" cy="52" r="7" fill="#ef4444"/><circle cx="96" cy="52" r="7" fill="#f59e0b"/><circle cx="120" cy="52" r="7" fill="#22c55e"/>
  <rect x="174" y="42" width="412" height="20" rx="10" fill="#e2e8f0"/>
  <rect x="60" y="102" width="250" height="700" rx="18" fill="#f8fbff" stroke="#dce5ef"/><circle cx="92" cy="136" r="18" fill="#1f4e79" stroke="none" stroke-width="1"/><text x="120" y="140" class="ui" font-size="19" font-weight="850" fill="#142033">SIGEP-HUC</text><text x="84" y="174" class="ui" font-size="11" font-weight="800" fill="#66758a">menu do sistema</text><rect x="76" y="182" width="218" height="40" rx="10" fill="#e8f1ff" stroke="#cbdff8"/><text x="94" y="207" class="ui" font-size="13" font-weight="800" fill="#1f4e79">Dashboard</text><text x="94" y="255" class="ui" font-size="13" font-weight="650" fill="#66758a">Indicadores</text><text x="94" y="303" class="ui" font-size="13" font-weight="650" fill="#66758a">Acompanhamento</text><text x="94" y="351" class="ui" font-size="13" font-weight="650" fill="#66758a">Gestores</text><text x="94" y="399" class="ui" font-size="13" font-weight="650" fill="#66758a">Admin</text><text x="346" y="120" class="ui" font-size="28" font-weight="850" fill="#101b2c">Indicador principal</text><text x="346" y="147" class="ui" font-size="13" font-weight="600" fill="#65758b">KPI, unidades, processos e histórico</text><rect x="346" y="162" width="56" height="4" rx="3" fill="#1f4e79" stroke="#1f4e79"/><rect x="346" y="210" width="196" height="98" rx="14" fill="#ebf2fa" stroke="#ebf2fa"/><text x="364" y="240" class="ui" font-size="12" font-weight="800" fill="#1f4e79">Indicadores</text><text x="364" y="278" class="ui" font-size="30" font-weight="850" fill="#1f4e79">32</text><text x="524" y="278" class="ui" font-size="11" font-weight="700" fill="#1f4e79" text-anchor="end">ativos</text><rect x="564" y="210" width="196" height="98" rx="14" fill="#edf9f2" stroke="#edf9f2"/><text x="582" y="240" class="ui" font-size="12" font-weight="800" fill="#2f9e6d">No prazo</text><text x="582" y="278" class="ui" font-size="30" font-weight="850" fill="#2f9e6d">88%</text><text x="742" y="278" class="ui" font-size="11" font-weight="700" fill="#2f9e6d" text-anchor="end">+5</text><rect x="782" y="210" width="196" height="98" rx="14" fill="#fdeeee" stroke="#fdeeee"/><text x="800" y="240" class="ui" font-size="12" font-weight="800" fill="#bf4c4c">Alertas</text><text x="800" y="278" class="ui" font-size="30" font-weight="850" fill="#bf4c4c">05</text><text x="960" y="278" class="ui" font-size="11" font-weight="700" fill="#bf4c4c" text-anchor="end">ação</text><rect x="1000" y="210" width="196" height="98" rx="14" fill="#fff7e4" stroke="#fff7e4"/><text x="1018" y="240" class="ui" font-size="12" font-weight="800" fill="#b9891d">Gestores</text><text x="1018" y="278" class="ui" font-size="30" font-weight="850" fill="#b9891d">18</text><text x="1178" y="278" class="ui" font-size="11" font-weight="700" fill="#b9891d" text-anchor="end">ativos</text><rect x="346" y="350" width="420" height="210" rx="12" fill="#ffffff" stroke="#dce5ef"/><text x="364" y="380" class="ui" font-size="15" font-weight="800" fill="#142033">Histórico do indicador</text><line x1="368" y1="526" x2="744" y2="526" stroke="#d6dfeb" stroke-width="1" stroke-linecap="round"/><polyline points="376,526 436,499 496,481 556,458 616,472 676,430 736,398" fill="none" stroke="#1f4e79" stroke-width="5" stroke-linecap="round" stroke-linejoin="round"/><circle cx="616" cy="472" r="6" fill="#1f4e79" stroke="none" stroke-width="1"/><circle cx="676" cy="430" r="6" fill="#1f4e79" stroke="none" stroke-width="1"/><circle cx="736" cy="398" r="6" fill="#1f4e79" stroke="none" stroke-width="1"/><rect x="800" y="350" width="438" height="188" rx="12" fill="#ffffff" stroke="#dce5ef"/><text x="818" y="380" class="ui" font-size="16" font-weight="800" fill="#142033">renderUnitCards</text><rect x="816" y="394" width="406" height="34" rx="8" fill="#f2f6fa" stroke="#f2f6fa"/><text x="828" y="416" class="ui" font-size="11" font-weight="800" fill="#617187">Unidade</text><text x="924" y="416" class="ui" font-size="11" font-weight="800" fill="#617187">Valor</text><text x="1020" y="416" class="ui" font-size="11" font-weight="800" fill="#617187">Meta</text><text x="1116" y="416" class="ui" font-size="11" font-weight="800" fill="#617187">Status</text><line x1="818" y1="430" x2="1220" y2="430" stroke="#e7edf4" stroke-width="1" stroke-linecap="round"/><text x="828" y="452" class="ui" font-size="12" font-weight="600" fill="#2b3b4f">UTI</text><text x="924" y="452" class="ui" font-size="12" font-weight="600" fill="#2b3b4f">94%</text><text x="1020" y="452" class="ui" font-size="12" font-weight="600" fill="#2b3b4f">90%</text><rect x="1116" y="432" width="80" height="26" rx="13" fill="#e6f7ef" stroke="#e6f7ef"/><text x="1156" y="450" class="ui" font-size="12" font-weight="800" fill="#13704c" text-anchor="middle">OK</text><line x1="818" y1="472" x2="1220" y2="472" stroke="#e7edf4" stroke-width="1" stroke-linecap="round"/><text x="828" y="494" class="ui" font-size="12" font-weight="600" fill="#2b3b4f">Clínica</text><text x="924" y="494" class="ui" font-size="12" font-weight="600" fill="#2b3b4f">82%</text><text x="1020" y="494" class="ui" font-size="12" font-weight="600" fill="#2b3b4f">90%</text><rect x="1116" y="474" width="80" height="26" rx="13" fill="#fff6df" stroke="#fff6df"/><text x="1156" y="492" class="ui" font-size="12" font-weight="800" fill="#9a6208" text-anchor="middle">Revisar</text><line x1="818" y1="514" x2="1220" y2="514" stroke="#e7edf4" stroke-width="1" stroke-linecap="round"/><text x="828" y="536" class="ui" font-size="12" font-weight="600" fill="#2b3b4f">PA</text><text x="924" y="536" class="ui" font-size="12" font-weight="600" fill="#2b3b4f">90%</text><text x="1020" y="536" class="ui" font-size="12" font-weight="600" fill="#2b3b4f">90%</text><rect x="1116" y="516" width="80" height="26" rx="13" fill="#e6f7ef" stroke="#e6f7ef"/><text x="1156" y="534" class="ui" font-size="12" font-weight="800" fill="#13704c" text-anchor="middle">OK</text><rect x="346" y="604" width="892" height="188" rx="12" fill="#ffffff" stroke="#dce5ef"/><text x="364" y="634" class="ui" font-size="16" font-weight="800" fill="#142033">Acompanhamento</text><rect x="362" y="648" width="860" height="34" rx="8" fill="#f2f6fa" stroke="#f2f6fa"/><text x="374" y="670" class="ui" font-size="11" font-weight="800" fill="#617187">Processo</text><text x="584" y="670" class="ui" font-size="11" font-weight="800" fill="#617187">Responsável</text><text x="794" y="670" class="ui" font-size="11" font-weight="800" fill="#617187">Ação</text><text x="1004" y="670" class="ui" font-size="11" font-weight="800" fill="#617187">Status</text><line x1="364" y1="684" x2="1220" y2="684" stroke="#e7edf4" stroke-width="1" stroke-linecap="round"/><text x="374" y="706" class="ui" font-size="12" font-weight="600" fill="#2b3b4f">Mapeamento</text><text x="584" y="706" class="ui" font-size="12" font-weight="600" fill="#2b3b4f">Gestor</text><text x="794" y="706" class="ui" font-size="12" font-weight="600" fill="#2b3b4f">Corrigir competência</text><rect x="1004" y="686" width="112" height="26" rx="13" fill="#e6f7ef" stroke="#e6f7ef"/><text x="1060" y="704" class="ui" font-size="12" font-weight="800" fill="#13704c" text-anchor="middle">Aberto</text><line x1="364" y1="726" x2="1220" y2="726" stroke="#e7edf4" stroke-width="1" stroke-linecap="round"/><text x="374" y="748" class="ui" font-size="12" font-weight="600" fill="#2b3b4f">Indicador</text><text x="584" y="748" class="ui" font-size="12" font-weight="600" fill="#2b3b4f">Analista</text><text x="794" y="748" class="ui" font-size="12" font-weight="600" fill="#2b3b4f">Atualizar base</text><rect x="1004" y="728" width="112" height="26" rx="13" fill="#e6f7ef" stroke="#e6f7ef"/><text x="1060" y="746" class="ui" font-size="12" font-weight="800" fill="#13704c" text-anchor="middle">OK</text><line x1="364" y1="768" x2="1220" y2="768" stroke="#e7edf4" stroke-width="1" stroke-linecap="round"/><text x="374" y="790" class="ui" font-size="12" font-weight="600" fill="#2b3b4f">Dados</text><text x="584" y="790" class="ui" font-size="12" font-weight="600" fill="#2b3b4f">Admin</text><text x="794" y="790" class="ui" font-size="12" font-weight="600" fill="#2b3b4f">Saneamento</text><rect x="1004" y="770" width="112" height="26" rx="13" fill="#fff6df" stroke="#fff6df"/><text x="1060" y="788" class="ui" font-size="12" font-weight="800" fill="#9a6208" text-anchor="middle">Alerta</text>
  <text x="1076" y="832" class="ui" font-size="11" fill="#8a98ab">Tela demonstrativa baseada no código do repositório - dados fictícios</text>
</svg>