<svg xmlns="http://www.w3.org/2000/svg" width="1440" height="900" viewBox="0 0 1440 900" role="img">
  <title>SIGEP-HUC - processos</title>
  <desc>Quadro de processos Dados fictícios, sem informação real de pacientes, profissionais ou instituição.</desc>
  <defs>
    <filter id="shadow" x="-15%" y="-15%" width="130%" height="130%"><feDropShadow dx="0" dy="18" stdDeviation="18" flood-color="#0f172a" flood-opacity=".13"/></filter>
    <style>.ui{font-family:Inter,Segoe UI,Arial,sans-serif;letter-spacing:0}</style>
  </defs>
  <rect width="1440" height="900" fill="#f5f8fc"/>
  <rect x="34" y="28" width="1372" height="824" rx="26" fill="#ffffff" filter="url(#shadow)"/>
  <rect x="34" y="28" width="1372" height="48" rx="26" fill="#f8fafc"/>
  <circle cx="72" cy="52" r="7" fill="#ef4444"/><circle cx="96" cy="52" r="7" fill="#f59e0b"/><circle cx="120" cy="52" r="7" fill="#22c55e"/>
  <rect x="174" y="42" width="412" height="20" rx="10" fill="#e2e8f0"/>
  <text x="82" y="120" class="ui" font-size="28" font-weight="850" fill="#101b2c">Quadro de processos</text><text x="82" y="147" class="ui" font-size="13" font-weight="600" fill="#65758b">Pipeline operacional com mapeamentos e tarefas</text><rect x="82" y="162" width="56" height="4" rx="3" fill="#1f4e79" stroke="#1f4e79"/><rect x="82" y="216" width="284" height="538" rx="16" fill="#ebf2fa" stroke="#d5e1ef"/><text x="104" y="254" class="ui" font-size="18" font-weight="850" fill="#11263f">Novo</text><rect x="100" y="286" width="248" height="82" rx="12" fill="#ffffff" stroke="#d5e1ef"/><text x="118" y="318" class="ui" font-size="15" font-weight="800" fill="#22374f">Processo NIR</text><text x="118" y="342" class="ui" font-size="11" font-weight="650" fill="#4d637c">tipo · setor · gestor</text><rect x="100" y="386" width="248" height="82" rx="12" fill="#ffffff" stroke="#d5e1ef"/><text x="118" y="418" class="ui" font-size="15" font-weight="800" fill="#22374f">Indicador UTI</text><text x="118" y="442" class="ui" font-size="11" font-weight="650" fill="#4d637c">tipo · setor · gestor</text><rect x="100" y="486" width="248" height="82" rx="12" fill="#ffffff" stroke="#d5e1ef"/><text x="118" y="518" class="ui" font-size="15" font-weight="800" fill="#22374f">Cadastro setor</text><text x="118" y="542" class="ui" font-size="11" font-weight="650" fill="#4d637c">tipo · setor · gestor</text><rect x="388" y="216" width="284" height="538" rx="16" fill="#fff7e4" stroke="#d5e1ef"/><text x="410" y="254" class="ui" font-size="18" font-weight="850" fill="#11263f">Em análise</text><rect x="406" y="286" width="248" height="82" rx="12" fill="#ffffff" stroke="#d5e1ef"/><text x="424" y="318" class="ui" font-size="15" font-weight="800" fill="#22374f">Validar meta</text><text x="424" y="342" class="ui" font-size="11" font-weight="650" fill="#4d637c">tipo · setor · gestor</text><rect x="406" y="386" width="248" height="82" rx="12" fill="#ffffff" stroke="#d5e1ef"/><text x="424" y="418" class="ui" font-size="15" font-weight="800" fill="#22374f">Rever período</text><text x="424" y="442" class="ui" font-size="11" font-weight="650" fill="#4d637c">tipo · setor · gestor</text><rect x="406" y="486" width="248" height="82" rx="12" fill="#ffffff" stroke="#d5e1ef"/><text x="424" y="518" class="ui" font-size="15" font-weight="800" fill="#22374f">Gestor pendente</text><text x="424" y="542" class="ui" font-size="11" font-weight="650" fill="#4d637c">tipo · setor · gestor</text><rect x="694" y="216" width="284" height="538" rx="16" fill="#fdeeee" stroke="#d5e1ef"/><text x="716" y="254" class="ui" font-size="18" font-weight="850" fill="#11263f">Saneamento</text><rect x="712" y="286" width="248" height="82" rx="12" fill="#ffffff" stroke="#d5e1ef"/><text x="730" y="318" class="ui" font-size="15" font-weight="800" fill="#22374f">Competência</text><text x="730" y="342" class="ui" font-size="11" font-weight="650" fill="#4d637c">tipo · setor · gestor</text><rect x="712" y="386" width="248" height="82" rx="12" fill="#ffffff" stroke="#d5e1ef"/><text x="730" y="418" class="ui" font-size="15" font-weight="800" fill="#22374f">Unidade vazia</text><text x="730" y="442" class="ui" font-size="11" font-weight="650" fill="#4d637c">tipo · setor · gestor</text><rect x="712" y="486" width="248" height="82" rx="12" fill="#ffffff" stroke="#d5e1ef"/><text x="730" y="518" class="ui" font-size="15" font-weight="800" fill="#22374f">Termo inválido</text><text x="730" y="542" class="ui" font-size="11" font-weight="650" fill="#4d637c">tipo · setor · gestor</text><rect x="1000" y="216" width="284" height="538" rx="16" fill="#edf9f2" stroke="#d5e1ef"/><text x="1022" y="254" class="ui" font-size="18" font-weight="850" fill="#11263f">Concluído</text><rect x="1018" y="286" width="248" height="82" rx="12" fill="#ffffff" stroke="#d5e1ef"/><text x="1036" y="318" class="ui" font-size="15" font-weight="800" fill="#22374f">Snapshot</text><text x="1036" y="342" class="ui" font-size="11" font-weight="650" fill="#4d637c">tipo · setor · gestor</text><rect x="1018" y="386" width="248" height="82" rx="12" fill="#ffffff" stroke="#d5e1ef"/><text x="1036" y="418" class="ui" font-size="15" font-weight="800" fill="#22374f">Export</text><text x="1036" y="442" class="ui" font-size="11" font-weight="650" fill="#4d637c">tipo · setor · gestor</text><rect x="1018" y="486" width="248" height="82" rx="12" fill="#ffffff" stroke="#d5e1ef"/><text x="1036" y="518" class="ui" font-size="15" font-weight="800" fill="#22374f">Relatório</text><text x="1036" y="542" class="ui" font-size="11" font-weight="650" fill="#4d637c">tipo · setor · gestor</text>
  <text x="1076" y="832" class="ui" font-size="11" fill="#8a98ab">Tela demonstrativa baseada no código do repositório - dados fictícios</text>
</svg>