<svg xmlns="http://www.w3.org/2000/svg" width="1440" height="900" viewBox="0 0 1440 900" role="img">
  <title>SIGEP-HUC - snapshots</title>
  <desc>Rotinas e auditoria Dados fictícios, sem informação real de pacientes, profissionais ou instituição.</desc>
  <defs>
    <filter id="shadow" x="-15%" y="-15%" width="130%" height="130%"><feDropShadow dx="0" dy="18" stdDeviation="18" flood-color="#0f172a" flood-opacity=".13"/></filter>
    <style>.ui{font-family:Inter,Segoe UI,Arial,sans-serif;letter-spacing:0}</style>
  </defs>
  <rect width="1440" height="900" fill="#f5f8fc"/>
  <rect x="34" y="28" width="1372" height="824" rx="26" fill="#ffffff" filter="url(#shadow)"/>
  <rect x="34" y="28" width="1372" height="48" rx="26" fill="#f8fafc"/>
  <circle cx="72" cy="52" r="7" fill="#ef4444"/><circle cx="96" cy="52" r="7" fill="#f59e0b"/><circle cx="120" cy="52" r="7" fill="#22c55e"/>
  <rect x="174" y="42" width="412" height="20" rx="10" fill="#e2e8f0"/>
  <text x="82" y="120" class="ui" font-size="28" font-weight="850" fill="#101b2c">Rotinas e snapshots</text><text x="82" y="147" class="ui" font-size="13" font-weight="600" fill="#65758b">Jobs, cache, revisão de dados e auditoria</text><rect x="82" y="162" width="56" height="4" rx="3" fill="#1f4e79" stroke="#1f4e79"/><rect x="82" y="220" width="694" height="230" rx="12" fill="#ffffff" stroke="#dce5ef"/><text x="100" y="250" class="ui" font-size="16" font-weight="800" fill="#142033">Jobs do sistema</text><rect x="98" y="264" width="662" height="34" rx="8" fill="#f2f6fa" stroke="#f2f6fa"/><text x="110" y="286" class="ui" font-size="11" font-weight="800" fill="#617187">Rotina</text><text x="270" y="286" class="ui" font-size="11" font-weight="800" fill="#617187">Agenda</text><text x="430" y="286" class="ui" font-size="11" font-weight="800" fill="#617187">Destino</text><text x="590" y="286" class="ui" font-size="11" font-weight="800" fill="#617187">Status</text><line x1="100" y1="300" x2="758" y2="300" stroke="#e7edf4" stroke-width="1" stroke-linecap="round"/><text x="110" y="322" class="ui" font-size="12" font-weight="600" fill="#2b3b4f">renderDashboard</text><text x="270" y="322" class="ui" font-size="12" font-weight="600" fill="#2b3b4f">ao abrir</text><text x="430" y="322" class="ui" font-size="12" font-weight="600" fill="#2b3b4f">painel</text><rect x="590" y="302" width="112" height="26" rx="13" fill="#e6f7ef" stroke="#e6f7ef"/><text x="646" y="320" class="ui" font-size="12" font-weight="800" fill="#13704c" text-anchor="middle">OK</text><line x1="100" y1="342" x2="758" y2="342" stroke="#e7edf4" stroke-width="1" stroke-linecap="round"/><text x="110" y="364" class="ui" font-size="12" font-weight="600" fill="#2b3b4f">loadAdminData</text><text x="270" y="364" class="ui" font-size="12" font-weight="600" fill="#2b3b4f">manual</text><text x="430" y="364" class="ui" font-size="12" font-weight="600" fill="#2b3b4f">drawer</text><rect x="590" y="344" width="112" height="26" rx="13" fill="#e6f7ef" stroke="#e6f7ef"/><text x="646" y="362" class="ui" font-size="12" font-weight="800" fill="#13704c" text-anchor="middle">OK</text><line x1="100" y1="384" x2="758" y2="384" stroke="#e7edf4" stroke-width="1" stroke-linecap="round"/><text x="110" y="406" class="ui" font-size="12" font-weight="600" fill="#2b3b4f">reviewData</text><text x="270" y="406" class="ui" font-size="12" font-weight="600" fill="#2b3b4f">sob demanda</text><text x="430" y="406" class="ui" font-size="12" font-weight="600" fill="#2b3b4f">achados</text><rect x="590" y="386" width="112" height="26" rx="13" fill="#fff6df" stroke="#fff6df"/><text x="646" y="404" class="ui" font-size="12" font-weight="800" fill="#9a6208" text-anchor="middle">Alerta</text><line x1="100" y1="426" x2="758" y2="426" stroke="#e7edf4" stroke-width="1" stroke-linecap="round"/><text x="110" y="448" class="ui" font-size="12" font-weight="600" fill="#2b3b4f">snapshot mensal</text><text x="270" y="448" class="ui" font-size="12" font-weight="600" fill="#2b3b4f">mensal</text><text x="430" y="448" class="ui" font-size="12" font-weight="600" fill="#2b3b4f">histórico</text><rect x="590" y="428" width="112" height="26" rx="13" fill="#e6f7ef" stroke="#e6f7ef"/><text x="646" y="446" class="ui" font-size="12" font-weight="800" fill="#13704c" text-anchor="middle">OK</text><rect x="820" y="220" width="444" height="220" rx="12" fill="#ffffff" stroke="#dce5ef"/><text x="838" y="250" class="ui" font-size="15" font-weight="800" fill="#142033">Execuções</text><rect x="850" y="350" width="59" height="56" rx="5" fill="#14b8a6" stroke="#14b8a6" opacity="0.52"/><text x="879" y="426" class="ui" font-size="10" font-weight="700" fill="#738196" text-anchor="middle">Seg</text><rect x="927" y="302" width="59" height="104" rx="5" fill="#14b8a6" stroke="#14b8a6" opacity="0.59"/><text x="956" y="426" class="ui" font-size="10" font-weight="700" fill="#738196" text-anchor="middle">Ter</text><rect x="1004" y="340" width="59" height="66" rx="5" fill="#14b8a6" stroke="#14b8a6" opacity="0.66"/><text x="1033" y="426" class="ui" font-size="10" font-weight="700" fill="#738196" text-anchor="middle">Qua</text><rect x="1081" y="264" width="59" height="142" rx="5" fill="#14b8a6" stroke="#14b8a6" opacity="0.73"/><text x="1110" y="426" class="ui" font-size="10" font-weight="700" fill="#738196" text-anchor="middle">Qui</text><rect x="1158" y="321" width="59" height="85" rx="5" fill="#14b8a6" stroke="#14b8a6" opacity="0.8"/><text x="1187" y="426" class="ui" font-size="10" font-weight="700" fill="#738196" text-anchor="middle">Sex</text><line x1="844" y1="406" x2="1240" y2="406" stroke="#d6dfeb" stroke-width="1" stroke-linecap="round"/><rect x="82" y="510" width="1182" height="224" rx="16" fill="#ffffff" stroke="#d5e1ef"/><text x="112" y="550" class="ui" font-size="20" font-weight="850" fill="#11263f">Central de conferência e saneamento</text><rect x="112" y="590" width="260" height="30" rx="15" fill="#ebf2fa" stroke="#ebf2fa"/><text x="242" y="610" class="ui" font-size="12" font-weight="800" fill="#1f4e79" text-anchor="middle">aplicarSugestao</text><rect x="412" y="590" width="260" height="30" rx="15" fill="#ebf2fa" stroke="#ebf2fa"/><text x="542" y="610" class="ui" font-size="12" font-weight="800" fill="#1f4e79" text-anchor="middle">aplicarSugestaoEmLote</text><rect x="712" y="590" width="260" height="30" rx="15" fill="#ebf2fa" stroke="#ebf2fa"/><text x="842" y="610" class="ui" font-size="12" font-weight="800" fill="#1f4e79" text-anchor="middle">corrigirDadoManual</text><rect x="112" y="642" width="260" height="30" rx="15" fill="#ebf2fa" stroke="#ebf2fa"/><text x="242" y="662" class="ui" font-size="12" font-weight="800" fill="#1f4e79" text-anchor="middle">groupFindingsByTheme</text><rect x="412" y="642" width="260" height="30" rx="15" fill="#ebf2fa" stroke="#ebf2fa"/><text x="542" y="662" class="ui" font-size="12" font-weight="800" fill="#1f4e79" text-anchor="middle">normalizeIssueTheme</text>
  <text x="1076" y="832" class="ui" font-size="11" fill="#8a98ab">Tela demonstrativa baseada no código do repositório - dados fictícios</text>
</svg>